<?xml version="1.0" encoding="UTF-8"?>
<svg width="800" height="800" viewBox="0 0 800 800" fill="none" xmlns="http://www.w3.org/2000/svg">
    <g>
        <!-- Main hexagon -->
        <path d="M400 100L650 250V550L400 700L150 550V250L400 100Z" fill="url(#hex-gradient)" opacity="0.15">
            <animate attributeName="opacity" values="0.15;0.25;0.15" dur="4s" repeatCount="indefinite" />
        </path>
        
        <!-- Inner rotating hexagons -->
        <g>
            <animateTransform attributeName="transform" type="rotate" from="0 400 400" to="360 400 400" dur="20s" repeatCount="indefinite" />
            
            <!-- Smaller hexagon 1 -->
            <path d="M400 200L525 275V425L400 500L275 425V275L400 200Z" fill="url(#hex-gradient)" opacity="0.1">
                <animate attributeName="opacity" values="0.1;0.2;0.1" dur="4s" begin="1s" repeatCount="indefinite" />
            </path>
            
            <!-- Smaller hexagon 2 -->
            <path d="M400 300L475 350V450L400 500L325 450V350L400 300Z" fill="url(#hex-gradient)" opacity="0.1">
                <animate attributeName="opacity" values="0.1;0.2;0.1" dur="4s" begin="2s" repeatCount="indefinite" />
            </path>
        </g>
        
        <!-- Pulsing circles at vertices -->
        <circle cx="400" cy="100" r="8" fill="url(#hex-gradient)">
            <animate attributeName="r" values="8;12;8" dur="2s" repeatCount="indefinite" />
        </circle>
        <circle cx="650" cy="250" r="8" fill="url(#hex-gradient)">
            <animate attributeName="r" values="8;12;8" dur="2s" begin="0.3s" repeatCount="indefinite" />
        </circle>
        <circle cx="650" cy="550" r="8" fill="url(#hex-gradient)">
            <animate attributeName="r" values="8;12;8" dur="2s" begin="0.6s" repeatCount="indefinite" />
        </circle>
        <circle cx="400" cy="700" r="8" fill="url(#hex-gradient)">
            <animate attributeName="r" values="8;12;8" dur="2s" begin="0.9s" repeatCount="indefinite" />
        </circle>
        <circle cx="150" cy="550" r="8" fill="url(#hex-gradient)">
            <animate attributeName="r" values="8;12;8" dur="2s" begin="1.2s" repeatCount="indefinite" />
        </circle>
        <circle cx="150" cy="250" r="8" fill="url(#hex-gradient)">
            <animate attributeName="r" values="8;12;8" dur="2s" begin="1.5s" repeatCount="indefinite" />
        </circle>
    </g>
    
    <!-- Connecting lines -->
    <g opacity="0.1">
        <line x1="400" y1="100" x2="650" y2="250" stroke="url(#hex-gradient)" stroke-width="2" />
        <line x1="650" y1="250" x2="650" y2="550" stroke="url(#hex-gradient)" stroke-width="2" />
        <line x1="650" y1="550" x2="400" y2="700" stroke="url(#hex-gradient)" stroke-width="2" />
        <line x1="400" y1="700" x2="150" y2="550" stroke="url(#hex-gradient)" stroke-width="2" />
        <line x1="150" y1="550" x2="150" y2="250" stroke="url(#hex-gradient)" stroke-width="2" />
        <line x1="150" y1="250" x2="400" y2="100" stroke="url(#hex-gradient)" stroke-width="2" />
    </g>
    
    <defs>
        <linearGradient id="hex-gradient" x1="150" y1="100" x2="650" y2="700" gradientUnits="userSpaceOnUse">
            <stop offset="0" stop-color="#0984e3" />
            <stop offset="1" stop-color="#00b894" />
        </linearGradient>
    </defs>
</svg>
