<?xml version="1.0" encoding="UTF-8"?>
<svg width="600" height="400" viewBox="0 0 600 400" fill="none" xmlns="http://www.w3.org/2000/svg">
    <!-- Desk -->
    <rect x="100" y="250" width="400" height="20" fill="#34495e"/>
    
    <!-- Computer Monitor -->
    <rect x="200" y="100" width="200" height="140" rx="5" fill="#2c3e50"/>
    <rect x="210" y="110" width="180" height="120" fill="#ecf0f1"/>
    <rect x="280" y="240" width="40" height="10" fill="#2c3e50"/>
    <rect x="260" y="250" width="80" height="5" fill="#7f8c8d"/>
    
    <!-- Code on Screen -->
    <rect x="220" y="120" width="60" height="5" fill="#3498db"/>
    <rect x="220" y="130" width="100" height="5" fill="#e74c3c"/>
    <rect x="220" y="140" width="80" height="5" fill="#2ecc71"/>
    <rect x="220" y="150" width="90" height="5" fill="#f1c40f"/>
    <rect x="220" y="160" width="70" height="5" fill="#9b59b6"/>
    
    <!-- Person -->
    <circle cx="300" cy="180" r="25" fill="#3498db"/> <!-- Head -->
    <rect x="285" y="205" width="30" height="45" fill="#3498db"/> <!-- Body -->
    <rect x="275" y="210" width="10" height="30" fill="#3498db"/> <!-- Left Arm -->
    <rect x="315" y="210" width="10" height="30" fill="#3498db"/> <!-- Right Arm -->
    
    <!-- Chair -->
    <rect x="270" y="250" width="60" height="10" fill="#95a5a6"/>
    <rect x="285" y="260" width="30" height="40" fill="#95a5a6"/>
    
    <!-- Coffee Cup -->
    <rect x="420" y="200" width="20" height="25" rx="2" fill="#e74c3c"/>
    <rect x="425" y="195" width="10" height="5" fill="#c0392b"/>
    
    <!-- Plant -->
    <rect x="150" y="180" width="20" height="30" fill="#27ae60"/>
    <circle cx="160" cy="170" r="15" fill="#2ecc71"/>
    <circle cx="170" cy="180" r="10" fill="#2ecc71"/>
</svg>
